<mxfile host="Electron" agent="Mozilla/5.0 (Windows NT 10.0; Win64; x64) AppleWebKit/537.36 (KHTML, like Gecko) draw.io/25.0.2 Chrome/128.0.6613.186 Electron/32.2.5 Safari/537.36" version="25.0.2">
  <diagram name="Seite-1" id="clMyHMwC61nkFbLDkX4_">
    <mxGraphModel dx="1430" dy="825" grid="1" gridSize="10" guides="1" tooltips="1" connect="1" arrows="1" fold="1" page="1" pageScale="1" pageWidth="1169" pageHeight="1654" math="0" shadow="0">
      <root>
        <mxCell id="0" />
        <mxCell id="1" parent="0" />
        <mxCell id="gBG6J6Ldedl3g76K5xfk-16" value="" style="group;fillColor=#dae8fc;strokeColor=#6c8ebf;" vertex="1" connectable="0" parent="1">
          <mxGeometry x="330" y="100" width="160" height="36" as="geometry" />
        </mxCell>
        <mxCell id="gBG6J6Ldedl3g76K5xfk-17" value="" style="rounded=1;whiteSpace=wrap;html=1;strokeWidth=4;fillColor=#dae8fc;strokeColor=#6c8ebf;" vertex="1" parent="gBG6J6Ldedl3g76K5xfk-16">
          <mxGeometry width="160" height="36" as="geometry" />
        </mxCell>
        <mxCell id="gBG6J6Ldedl3g76K5xfk-18" value="" style="ellipse;whiteSpace=wrap;html=1;aspect=fixed;strokeWidth=3;fillColor=#dae8fc;strokeColor=#6c8ebf;" vertex="1" parent="gBG6J6Ldedl3g76K5xfk-16">
          <mxGeometry x="20" y="12" width="12" height="12" as="geometry" />
        </mxCell>
        <mxCell id="gBG6J6Ldedl3g76K5xfk-19" value="" style="rounded=1;whiteSpace=wrap;html=1;strokeWidth=3;fillColor=#dae8fc;strokeColor=#6c8ebf;" vertex="1" parent="gBG6J6Ldedl3g76K5xfk-16">
          <mxGeometry x="54" y="6" width="28" height="10" as="geometry" />
        </mxCell>
        <mxCell id="gBG6J6Ldedl3g76K5xfk-20" value="" style="rounded=1;whiteSpace=wrap;html=1;strokeWidth=3;fillColor=#dae8fc;strokeColor=#6c8ebf;" vertex="1" parent="gBG6J6Ldedl3g76K5xfk-16">
          <mxGeometry x="88" y="6" width="28" height="10" as="geometry" />
        </mxCell>
        <mxCell id="gBG6J6Ldedl3g76K5xfk-21" value="" style="rounded=1;whiteSpace=wrap;html=1;strokeWidth=3;fillColor=#dae8fc;strokeColor=#6c8ebf;" vertex="1" parent="gBG6J6Ldedl3g76K5xfk-16">
          <mxGeometry x="122" y="6" width="28" height="10" as="geometry" />
        </mxCell>
        <mxCell id="gBG6J6Ldedl3g76K5xfk-22" value="" style="rounded=1;whiteSpace=wrap;html=1;strokeWidth=3;fillColor=#dae8fc;strokeColor=#6c8ebf;" vertex="1" parent="gBG6J6Ldedl3g76K5xfk-16">
          <mxGeometry x="54" y="20" width="28" height="10" as="geometry" />
        </mxCell>
        <mxCell id="gBG6J6Ldedl3g76K5xfk-23" value="" style="rounded=1;whiteSpace=wrap;html=1;strokeWidth=3;fillColor=#dae8fc;strokeColor=#6c8ebf;" vertex="1" parent="gBG6J6Ldedl3g76K5xfk-16">
          <mxGeometry x="88" y="20" width="28" height="10" as="geometry" />
        </mxCell>
        <mxCell id="gBG6J6Ldedl3g76K5xfk-24" value="" style="rounded=1;whiteSpace=wrap;html=1;strokeWidth=3;fillColor=#dae8fc;strokeColor=#6c8ebf;" vertex="1" parent="gBG6J6Ldedl3g76K5xfk-16">
          <mxGeometry x="122" y="20" width="28" height="10" as="geometry" />
        </mxCell>
        <mxCell id="gBG6J6Ldedl3g76K5xfk-25" value="" style="group;fillColor=#dae8fc;strokeColor=#6c8ebf;" vertex="1" connectable="0" parent="1">
          <mxGeometry x="540" y="100" width="160" height="36" as="geometry" />
        </mxCell>
        <mxCell id="gBG6J6Ldedl3g76K5xfk-27" value="" style="rounded=1;whiteSpace=wrap;html=1;strokeWidth=4;fillColor=#dae8fc;strokeColor=#6c8ebf;" vertex="1" parent="gBG6J6Ldedl3g76K5xfk-25">
          <mxGeometry width="160" height="36" as="geometry" />
        </mxCell>
        <mxCell id="gBG6J6Ldedl3g76K5xfk-28" value="" style="ellipse;whiteSpace=wrap;html=1;aspect=fixed;strokeWidth=3;fillColor=#dae8fc;strokeColor=#6c8ebf;" vertex="1" parent="gBG6J6Ldedl3g76K5xfk-25">
          <mxGeometry x="20" y="12" width="12" height="12" as="geometry" />
        </mxCell>
        <mxCell id="gBG6J6Ldedl3g76K5xfk-29" value="" style="rounded=1;whiteSpace=wrap;html=1;strokeWidth=3;fillColor=#dae8fc;strokeColor=#6c8ebf;" vertex="1" parent="gBG6J6Ldedl3g76K5xfk-25">
          <mxGeometry x="54" y="6" width="28" height="10" as="geometry" />
        </mxCell>
        <mxCell id="gBG6J6Ldedl3g76K5xfk-30" value="" style="rounded=1;whiteSpace=wrap;html=1;strokeWidth=3;fillColor=#dae8fc;strokeColor=#6c8ebf;" vertex="1" parent="gBG6J6Ldedl3g76K5xfk-25">
          <mxGeometry x="88" y="6" width="28" height="10" as="geometry" />
        </mxCell>
        <mxCell id="gBG6J6Ldedl3g76K5xfk-31" value="" style="rounded=1;whiteSpace=wrap;html=1;strokeWidth=3;fillColor=#dae8fc;strokeColor=#6c8ebf;" vertex="1" parent="gBG6J6Ldedl3g76K5xfk-25">
          <mxGeometry x="122" y="6" width="28" height="10" as="geometry" />
        </mxCell>
        <mxCell id="gBG6J6Ldedl3g76K5xfk-32" value="" style="rounded=1;whiteSpace=wrap;html=1;strokeWidth=3;fillColor=#dae8fc;strokeColor=#6c8ebf;" vertex="1" parent="gBG6J6Ldedl3g76K5xfk-25">
          <mxGeometry x="54" y="20" width="28" height="10" as="geometry" />
        </mxCell>
        <mxCell id="gBG6J6Ldedl3g76K5xfk-33" value="" style="rounded=1;whiteSpace=wrap;html=1;strokeWidth=3;fillColor=#dae8fc;strokeColor=#6c8ebf;" vertex="1" parent="gBG6J6Ldedl3g76K5xfk-25">
          <mxGeometry x="88" y="20" width="28" height="10" as="geometry" />
        </mxCell>
        <mxCell id="gBG6J6Ldedl3g76K5xfk-34" value="" style="rounded=1;whiteSpace=wrap;html=1;strokeWidth=3;fillColor=#dae8fc;strokeColor=#6c8ebf;" vertex="1" parent="gBG6J6Ldedl3g76K5xfk-25">
          <mxGeometry x="122" y="20" width="28" height="10" as="geometry" />
        </mxCell>
        <mxCell id="gBG6J6Ldedl3g76K5xfk-35" value="" style="group;fillColor=#dae8fc;strokeColor=#6c8ebf;" vertex="1" connectable="0" parent="1">
          <mxGeometry x="740" y="100" width="160" height="36" as="geometry" />
        </mxCell>
        <mxCell id="gBG6J6Ldedl3g76K5xfk-36" value="" style="rounded=1;whiteSpace=wrap;html=1;strokeWidth=4;fillColor=#dae8fc;strokeColor=#6c8ebf;" vertex="1" parent="gBG6J6Ldedl3g76K5xfk-35">
          <mxGeometry width="160" height="36" as="geometry" />
        </mxCell>
        <mxCell id="gBG6J6Ldedl3g76K5xfk-37" value="" style="ellipse;whiteSpace=wrap;html=1;aspect=fixed;strokeWidth=3;fillColor=#dae8fc;strokeColor=#6c8ebf;" vertex="1" parent="gBG6J6Ldedl3g76K5xfk-35">
          <mxGeometry x="20" y="12" width="12" height="12" as="geometry" />
        </mxCell>
        <mxCell id="gBG6J6Ldedl3g76K5xfk-38" value="" style="rounded=1;whiteSpace=wrap;html=1;strokeWidth=3;fillColor=#dae8fc;strokeColor=#6c8ebf;" vertex="1" parent="gBG6J6Ldedl3g76K5xfk-35">
          <mxGeometry x="54" y="6" width="28" height="10" as="geometry" />
        </mxCell>
        <mxCell id="gBG6J6Ldedl3g76K5xfk-39" value="" style="rounded=1;whiteSpace=wrap;html=1;strokeWidth=3;fillColor=#dae8fc;strokeColor=#6c8ebf;" vertex="1" parent="gBG6J6Ldedl3g76K5xfk-35">
          <mxGeometry x="88" y="6" width="28" height="10" as="geometry" />
        </mxCell>
        <mxCell id="gBG6J6Ldedl3g76K5xfk-40" value="" style="rounded=1;whiteSpace=wrap;html=1;strokeWidth=3;fillColor=#dae8fc;strokeColor=#6c8ebf;" vertex="1" parent="gBG6J6Ldedl3g76K5xfk-35">
          <mxGeometry x="122" y="6" width="28" height="10" as="geometry" />
        </mxCell>
        <mxCell id="gBG6J6Ldedl3g76K5xfk-41" value="" style="rounded=1;whiteSpace=wrap;html=1;strokeWidth=3;fillColor=#dae8fc;strokeColor=#6c8ebf;" vertex="1" parent="gBG6J6Ldedl3g76K5xfk-35">
          <mxGeometry x="54" y="20" width="28" height="10" as="geometry" />
        </mxCell>
        <mxCell id="gBG6J6Ldedl3g76K5xfk-42" value="" style="rounded=1;whiteSpace=wrap;html=1;strokeWidth=3;fillColor=#dae8fc;strokeColor=#6c8ebf;" vertex="1" parent="gBG6J6Ldedl3g76K5xfk-35">
          <mxGeometry x="88" y="20" width="28" height="10" as="geometry" />
        </mxCell>
        <mxCell id="gBG6J6Ldedl3g76K5xfk-43" value="" style="rounded=1;whiteSpace=wrap;html=1;strokeWidth=3;fillColor=#dae8fc;strokeColor=#6c8ebf;" vertex="1" parent="gBG6J6Ldedl3g76K5xfk-35">
          <mxGeometry x="122" y="20" width="28" height="10" as="geometry" />
        </mxCell>
        <mxCell id="gBG6J6Ldedl3g76K5xfk-45" value="Host &lt;b&gt;C&lt;/b&gt;" style="rounded=1;whiteSpace=wrap;html=1;fillColor=#dae8fc;strokeColor=#6c8ebf;fontSize=20;" vertex="1" parent="1">
          <mxGeometry x="630" y="140" width="90" height="26" as="geometry" />
        </mxCell>
        <mxCell id="gBG6J6Ldedl3g76K5xfk-46" value="Host &lt;b&gt;G&lt;/b&gt;" style="rounded=1;whiteSpace=wrap;html=1;fillColor=#dae8fc;strokeColor=#6c8ebf;fontSize=20;" vertex="1" parent="1">
          <mxGeometry x="830" y="140" width="90" height="26" as="geometry" />
        </mxCell>
        <mxCell id="gBG6J6Ldedl3g76K5xfk-47" value="Host &lt;b&gt;B&lt;/b&gt;" style="rounded=1;whiteSpace=wrap;html=1;fillColor=#dae8fc;strokeColor=#6c8ebf;fontSize=20;" vertex="1" parent="1">
          <mxGeometry x="416" y="140" width="90" height="26" as="geometry" />
        </mxCell>
        <mxCell id="gBG6J6Ldedl3g76K5xfk-48" value="" style="group;fillColor=#dae8fc;strokeColor=#6c8ebf;" vertex="1" connectable="0" parent="1">
          <mxGeometry x="950" y="100" width="160" height="36" as="geometry" />
        </mxCell>
        <mxCell id="gBG6J6Ldedl3g76K5xfk-49" value="" style="rounded=1;whiteSpace=wrap;html=1;strokeWidth=4;fillColor=#dae8fc;strokeColor=#6c8ebf;" vertex="1" parent="gBG6J6Ldedl3g76K5xfk-48">
          <mxGeometry width="160" height="36" as="geometry" />
        </mxCell>
        <mxCell id="gBG6J6Ldedl3g76K5xfk-50" value="" style="ellipse;whiteSpace=wrap;html=1;aspect=fixed;strokeWidth=3;fillColor=#dae8fc;strokeColor=#6c8ebf;" vertex="1" parent="gBG6J6Ldedl3g76K5xfk-48">
          <mxGeometry x="20" y="12" width="12" height="12" as="geometry" />
        </mxCell>
        <mxCell id="gBG6J6Ldedl3g76K5xfk-51" value="" style="rounded=1;whiteSpace=wrap;html=1;strokeWidth=3;fillColor=#dae8fc;strokeColor=#6c8ebf;" vertex="1" parent="gBG6J6Ldedl3g76K5xfk-48">
          <mxGeometry x="54" y="6" width="28" height="10" as="geometry" />
        </mxCell>
        <mxCell id="gBG6J6Ldedl3g76K5xfk-52" value="" style="rounded=1;whiteSpace=wrap;html=1;strokeWidth=3;fillColor=#dae8fc;strokeColor=#6c8ebf;" vertex="1" parent="gBG6J6Ldedl3g76K5xfk-48">
          <mxGeometry x="88" y="6" width="28" height="10" as="geometry" />
        </mxCell>
        <mxCell id="gBG6J6Ldedl3g76K5xfk-53" value="" style="rounded=1;whiteSpace=wrap;html=1;strokeWidth=3;fillColor=#dae8fc;strokeColor=#6c8ebf;" vertex="1" parent="gBG6J6Ldedl3g76K5xfk-48">
          <mxGeometry x="122" y="6" width="28" height="10" as="geometry" />
        </mxCell>
        <mxCell id="gBG6J6Ldedl3g76K5xfk-54" value="" style="rounded=1;whiteSpace=wrap;html=1;strokeWidth=3;fillColor=#dae8fc;strokeColor=#6c8ebf;" vertex="1" parent="gBG6J6Ldedl3g76K5xfk-48">
          <mxGeometry x="54" y="20" width="28" height="10" as="geometry" />
        </mxCell>
        <mxCell id="gBG6J6Ldedl3g76K5xfk-55" value="" style="rounded=1;whiteSpace=wrap;html=1;strokeWidth=3;fillColor=#dae8fc;strokeColor=#6c8ebf;" vertex="1" parent="gBG6J6Ldedl3g76K5xfk-48">
          <mxGeometry x="88" y="20" width="28" height="10" as="geometry" />
        </mxCell>
        <mxCell id="gBG6J6Ldedl3g76K5xfk-56" value="" style="rounded=1;whiteSpace=wrap;html=1;strokeWidth=3;fillColor=#dae8fc;strokeColor=#6c8ebf;" vertex="1" parent="gBG6J6Ldedl3g76K5xfk-48">
          <mxGeometry x="122" y="20" width="28" height="10" as="geometry" />
        </mxCell>
        <mxCell id="gBG6J6Ldedl3g76K5xfk-57" value="Host &lt;b&gt;H&lt;/b&gt;" style="rounded=1;whiteSpace=wrap;html=1;fillColor=#dae8fc;strokeColor=#6c8ebf;fontSize=20;" vertex="1" parent="1">
          <mxGeometry x="1040" y="140" width="90" height="26" as="geometry" />
        </mxCell>
        <mxCell id="gBG6J6Ldedl3g76K5xfk-58" value="" style="group;fillColor=#dae8fc;strokeColor=#6c8ebf;" vertex="1" connectable="0" parent="1">
          <mxGeometry x="390" y="330" width="160" height="36" as="geometry" />
        </mxCell>
        <mxCell id="gBG6J6Ldedl3g76K5xfk-59" value="" style="rounded=1;whiteSpace=wrap;html=1;strokeWidth=4;fillColor=#dae8fc;strokeColor=#6c8ebf;" vertex="1" parent="gBG6J6Ldedl3g76K5xfk-58">
          <mxGeometry width="160" height="36" as="geometry" />
        </mxCell>
        <mxCell id="gBG6J6Ldedl3g76K5xfk-60" value="" style="ellipse;whiteSpace=wrap;html=1;aspect=fixed;strokeWidth=3;fillColor=#dae8fc;strokeColor=#6c8ebf;" vertex="1" parent="gBG6J6Ldedl3g76K5xfk-58">
          <mxGeometry x="20" y="12" width="12" height="12" as="geometry" />
        </mxCell>
        <mxCell id="gBG6J6Ldedl3g76K5xfk-61" value="" style="rounded=1;whiteSpace=wrap;html=1;strokeWidth=3;fillColor=#dae8fc;strokeColor=#6c8ebf;" vertex="1" parent="gBG6J6Ldedl3g76K5xfk-58">
          <mxGeometry x="54" y="6" width="28" height="10" as="geometry" />
        </mxCell>
        <mxCell id="gBG6J6Ldedl3g76K5xfk-62" value="" style="rounded=1;whiteSpace=wrap;html=1;strokeWidth=3;fillColor=#dae8fc;strokeColor=#6c8ebf;" vertex="1" parent="gBG6J6Ldedl3g76K5xfk-58">
          <mxGeometry x="88" y="6" width="28" height="10" as="geometry" />
        </mxCell>
        <mxCell id="gBG6J6Ldedl3g76K5xfk-63" value="" style="rounded=1;whiteSpace=wrap;html=1;strokeWidth=3;fillColor=#dae8fc;strokeColor=#6c8ebf;" vertex="1" parent="gBG6J6Ldedl3g76K5xfk-58">
          <mxGeometry x="122" y="6" width="28" height="10" as="geometry" />
        </mxCell>
        <mxCell id="gBG6J6Ldedl3g76K5xfk-64" value="" style="rounded=1;whiteSpace=wrap;html=1;strokeWidth=3;fillColor=#dae8fc;strokeColor=#6c8ebf;" vertex="1" parent="gBG6J6Ldedl3g76K5xfk-58">
          <mxGeometry x="54" y="20" width="28" height="10" as="geometry" />
        </mxCell>
        <mxCell id="gBG6J6Ldedl3g76K5xfk-65" value="" style="rounded=1;whiteSpace=wrap;html=1;strokeWidth=3;fillColor=#dae8fc;strokeColor=#6c8ebf;" vertex="1" parent="gBG6J6Ldedl3g76K5xfk-58">
          <mxGeometry x="88" y="20" width="28" height="10" as="geometry" />
        </mxCell>
        <mxCell id="gBG6J6Ldedl3g76K5xfk-66" value="" style="rounded=1;whiteSpace=wrap;html=1;strokeWidth=3;fillColor=#dae8fc;strokeColor=#6c8ebf;" vertex="1" parent="gBG6J6Ldedl3g76K5xfk-58">
          <mxGeometry x="122" y="20" width="28" height="10" as="geometry" />
        </mxCell>
        <mxCell id="gBG6J6Ldedl3g76K5xfk-67" value="Host &lt;b&gt;D&lt;/b&gt;" style="rounded=1;whiteSpace=wrap;html=1;fillColor=#dae8fc;strokeColor=#6c8ebf;fontSize=20;" vertex="1" parent="1">
          <mxGeometry x="480" y="370" width="90" height="26" as="geometry" />
        </mxCell>
        <mxCell id="gBG6J6Ldedl3g76K5xfk-68" value="" style="group;fillColor=#f8cecc;strokeColor=#b85450;" vertex="1" connectable="0" parent="1">
          <mxGeometry x="630" y="330" width="160" height="36" as="geometry" />
        </mxCell>
        <mxCell id="gBG6J6Ldedl3g76K5xfk-69" value="" style="rounded=1;whiteSpace=wrap;html=1;strokeWidth=4;fillColor=#f8cecc;strokeColor=#b85450;" vertex="1" parent="gBG6J6Ldedl3g76K5xfk-68">
          <mxGeometry width="160" height="36" as="geometry" />
        </mxCell>
        <mxCell id="gBG6J6Ldedl3g76K5xfk-70" value="" style="ellipse;whiteSpace=wrap;html=1;aspect=fixed;strokeWidth=3;fillColor=#f8cecc;strokeColor=#b85450;" vertex="1" parent="gBG6J6Ldedl3g76K5xfk-68">
          <mxGeometry x="20" y="12" width="12" height="12" as="geometry" />
        </mxCell>
        <mxCell id="gBG6J6Ldedl3g76K5xfk-71" value="" style="rounded=1;whiteSpace=wrap;html=1;strokeWidth=3;fillColor=#f8cecc;strokeColor=#b85450;" vertex="1" parent="gBG6J6Ldedl3g76K5xfk-68">
          <mxGeometry x="54" y="6" width="28" height="10" as="geometry" />
        </mxCell>
        <mxCell id="gBG6J6Ldedl3g76K5xfk-72" value="" style="rounded=1;whiteSpace=wrap;html=1;strokeWidth=3;fillColor=#f8cecc;strokeColor=#b85450;" vertex="1" parent="gBG6J6Ldedl3g76K5xfk-68">
          <mxGeometry x="88" y="6" width="28" height="10" as="geometry" />
        </mxCell>
        <mxCell id="gBG6J6Ldedl3g76K5xfk-73" value="" style="rounded=1;whiteSpace=wrap;html=1;strokeWidth=3;fillColor=#f8cecc;strokeColor=#b85450;" vertex="1" parent="gBG6J6Ldedl3g76K5xfk-68">
          <mxGeometry x="122" y="6" width="28" height="10" as="geometry" />
        </mxCell>
        <mxCell id="gBG6J6Ldedl3g76K5xfk-74" value="" style="rounded=1;whiteSpace=wrap;html=1;strokeWidth=3;fillColor=#f8cecc;strokeColor=#b85450;" vertex="1" parent="gBG6J6Ldedl3g76K5xfk-68">
          <mxGeometry x="54" y="20" width="28" height="10" as="geometry" />
        </mxCell>
        <mxCell id="gBG6J6Ldedl3g76K5xfk-75" value="" style="rounded=1;whiteSpace=wrap;html=1;strokeWidth=3;fillColor=#f8cecc;strokeColor=#b85450;" vertex="1" parent="gBG6J6Ldedl3g76K5xfk-68">
          <mxGeometry x="88" y="20" width="28" height="10" as="geometry" />
        </mxCell>
        <mxCell id="gBG6J6Ldedl3g76K5xfk-76" value="" style="rounded=1;whiteSpace=wrap;html=1;strokeWidth=3;fillColor=#f8cecc;strokeColor=#b85450;" vertex="1" parent="gBG6J6Ldedl3g76K5xfk-68">
          <mxGeometry x="122" y="20" width="28" height="10" as="geometry" />
        </mxCell>
        <mxCell id="gBG6J6Ldedl3g76K5xfk-77" value="Host &lt;b&gt;E&lt;/b&gt;" style="rounded=1;whiteSpace=wrap;html=1;fillColor=#f8cecc;strokeColor=#b85450;fontSize=20;" vertex="1" parent="1">
          <mxGeometry x="720" y="370" width="90" height="26" as="geometry" />
        </mxCell>
        <mxCell id="gBG6J6Ldedl3g76K5xfk-78" value="" style="group;fillColor=#dae8fc;strokeColor=#6c8ebf;" vertex="1" connectable="0" parent="1">
          <mxGeometry x="850" y="330" width="160" height="36" as="geometry" />
        </mxCell>
        <mxCell id="gBG6J6Ldedl3g76K5xfk-79" value="" style="rounded=1;whiteSpace=wrap;html=1;strokeWidth=4;fillColor=#dae8fc;strokeColor=#6c8ebf;" vertex="1" parent="gBG6J6Ldedl3g76K5xfk-78">
          <mxGeometry width="160" height="36" as="geometry" />
        </mxCell>
        <mxCell id="gBG6J6Ldedl3g76K5xfk-80" value="" style="ellipse;whiteSpace=wrap;html=1;aspect=fixed;strokeWidth=3;fillColor=#dae8fc;strokeColor=#6c8ebf;" vertex="1" parent="gBG6J6Ldedl3g76K5xfk-78">
          <mxGeometry x="20" y="12" width="12" height="12" as="geometry" />
        </mxCell>
        <mxCell id="gBG6J6Ldedl3g76K5xfk-81" value="" style="rounded=1;whiteSpace=wrap;html=1;strokeWidth=3;fillColor=#dae8fc;strokeColor=#6c8ebf;" vertex="1" parent="gBG6J6Ldedl3g76K5xfk-78">
          <mxGeometry x="54" y="6" width="28" height="10" as="geometry" />
        </mxCell>
        <mxCell id="gBG6J6Ldedl3g76K5xfk-82" value="" style="rounded=1;whiteSpace=wrap;html=1;strokeWidth=3;fillColor=#dae8fc;strokeColor=#6c8ebf;" vertex="1" parent="gBG6J6Ldedl3g76K5xfk-78">
          <mxGeometry x="88" y="6" width="28" height="10" as="geometry" />
        </mxCell>
        <mxCell id="gBG6J6Ldedl3g76K5xfk-83" value="" style="rounded=1;whiteSpace=wrap;html=1;strokeWidth=3;fillColor=#dae8fc;strokeColor=#6c8ebf;" vertex="1" parent="gBG6J6Ldedl3g76K5xfk-78">
          <mxGeometry x="122" y="6" width="28" height="10" as="geometry" />
        </mxCell>
        <mxCell id="gBG6J6Ldedl3g76K5xfk-84" value="" style="rounded=1;whiteSpace=wrap;html=1;strokeWidth=3;fillColor=#dae8fc;strokeColor=#6c8ebf;" vertex="1" parent="gBG6J6Ldedl3g76K5xfk-78">
          <mxGeometry x="54" y="20" width="28" height="10" as="geometry" />
        </mxCell>
        <mxCell id="gBG6J6Ldedl3g76K5xfk-85" value="" style="rounded=1;whiteSpace=wrap;html=1;strokeWidth=3;fillColor=#dae8fc;strokeColor=#6c8ebf;" vertex="1" parent="gBG6J6Ldedl3g76K5xfk-78">
          <mxGeometry x="88" y="20" width="28" height="10" as="geometry" />
        </mxCell>
        <mxCell id="gBG6J6Ldedl3g76K5xfk-86" value="" style="rounded=1;whiteSpace=wrap;html=1;strokeWidth=3;fillColor=#dae8fc;strokeColor=#6c8ebf;" vertex="1" parent="gBG6J6Ldedl3g76K5xfk-78">
          <mxGeometry x="122" y="20" width="28" height="10" as="geometry" />
        </mxCell>
        <mxCell id="gBG6J6Ldedl3g76K5xfk-87" value="Host &lt;b&gt;F&lt;/b&gt;" style="rounded=1;whiteSpace=wrap;html=1;fillColor=#dae8fc;strokeColor=#6c8ebf;fontSize=20;" vertex="1" parent="1">
          <mxGeometry x="940" y="370" width="90" height="26" as="geometry" />
        </mxCell>
        <mxCell id="gBG6J6Ldedl3g76K5xfk-88" value="" style="group;fillColor=#d5e8d4;strokeColor=#82b366;" vertex="1" connectable="0" parent="1">
          <mxGeometry x="40" y="220" width="160" height="36" as="geometry" />
        </mxCell>
        <mxCell id="gBG6J6Ldedl3g76K5xfk-89" value="" style="rounded=1;whiteSpace=wrap;html=1;strokeWidth=4;fillColor=#d5e8d4;strokeColor=#82b366;" vertex="1" parent="gBG6J6Ldedl3g76K5xfk-88">
          <mxGeometry width="160" height="36" as="geometry" />
        </mxCell>
        <mxCell id="gBG6J6Ldedl3g76K5xfk-90" value="" style="ellipse;whiteSpace=wrap;html=1;aspect=fixed;strokeWidth=3;fillColor=#d5e8d4;strokeColor=#82b366;" vertex="1" parent="gBG6J6Ldedl3g76K5xfk-88">
          <mxGeometry x="20" y="12" width="12" height="12" as="geometry" />
        </mxCell>
        <mxCell id="gBG6J6Ldedl3g76K5xfk-91" value="" style="rounded=1;whiteSpace=wrap;html=1;strokeWidth=3;fillColor=#d5e8d4;strokeColor=#82b366;" vertex="1" parent="gBG6J6Ldedl3g76K5xfk-88">
          <mxGeometry x="54" y="6" width="28" height="10" as="geometry" />
        </mxCell>
        <mxCell id="gBG6J6Ldedl3g76K5xfk-92" value="" style="rounded=1;whiteSpace=wrap;html=1;strokeWidth=3;fillColor=#d5e8d4;strokeColor=#82b366;" vertex="1" parent="gBG6J6Ldedl3g76K5xfk-88">
          <mxGeometry x="88" y="6" width="28" height="10" as="geometry" />
        </mxCell>
        <mxCell id="gBG6J6Ldedl3g76K5xfk-93" value="" style="rounded=1;whiteSpace=wrap;html=1;strokeWidth=3;fillColor=#d5e8d4;strokeColor=#82b366;" vertex="1" parent="gBG6J6Ldedl3g76K5xfk-88">
          <mxGeometry x="122" y="6" width="28" height="10" as="geometry" />
        </mxCell>
        <mxCell id="gBG6J6Ldedl3g76K5xfk-94" value="" style="rounded=1;whiteSpace=wrap;html=1;strokeWidth=3;fillColor=#d5e8d4;strokeColor=#82b366;" vertex="1" parent="gBG6J6Ldedl3g76K5xfk-88">
          <mxGeometry x="54" y="20" width="28" height="10" as="geometry" />
        </mxCell>
        <mxCell id="gBG6J6Ldedl3g76K5xfk-95" value="" style="rounded=1;whiteSpace=wrap;html=1;strokeWidth=3;fillColor=#d5e8d4;strokeColor=#82b366;" vertex="1" parent="gBG6J6Ldedl3g76K5xfk-88">
          <mxGeometry x="88" y="20" width="28" height="10" as="geometry" />
        </mxCell>
        <mxCell id="gBG6J6Ldedl3g76K5xfk-96" value="" style="rounded=1;whiteSpace=wrap;html=1;strokeWidth=3;fillColor=#d5e8d4;strokeColor=#82b366;" vertex="1" parent="gBG6J6Ldedl3g76K5xfk-88">
          <mxGeometry x="122" y="20" width="28" height="10" as="geometry" />
        </mxCell>
        <mxCell id="gBG6J6Ldedl3g76K5xfk-97" value="Host &lt;b&gt;A&lt;/b&gt;" style="rounded=1;whiteSpace=wrap;html=1;fillColor=#d5e8d4;strokeColor=#82b366;fontSize=20;" vertex="1" parent="1">
          <mxGeometry x="130" y="260" width="90" height="26" as="geometry" />
        </mxCell>
        <mxCell id="gBG6J6Ldedl3g76K5xfk-98" style="edgeStyle=orthogonalEdgeStyle;rounded=0;orthogonalLoop=1;jettySize=auto;html=1;entryX=0.534;entryY=0.953;entryDx=0;entryDy=0;entryPerimeter=0;endArrow=none;endFill=0;" edge="1" parent="1" source="gBG6J6Ldedl3g76K5xfk-89" target="gBG6J6Ldedl3g76K5xfk-17">
          <mxGeometry relative="1" as="geometry" />
        </mxCell>
        <mxCell id="gBG6J6Ldedl3g76K5xfk-99" style="edgeStyle=orthogonalEdgeStyle;rounded=0;orthogonalLoop=1;jettySize=auto;html=1;endArrow=none;endFill=0;" edge="1" parent="1" source="gBG6J6Ldedl3g76K5xfk-89" target="gBG6J6Ldedl3g76K5xfk-27">
          <mxGeometry relative="1" as="geometry" />
        </mxCell>
        <mxCell id="gBG6J6Ldedl3g76K5xfk-100" style="edgeStyle=orthogonalEdgeStyle;rounded=0;orthogonalLoop=1;jettySize=auto;html=1;entryX=0.5;entryY=1;entryDx=0;entryDy=0;endArrow=none;endFill=0;" edge="1" parent="1" source="gBG6J6Ldedl3g76K5xfk-89" target="gBG6J6Ldedl3g76K5xfk-36">
          <mxGeometry relative="1" as="geometry" />
        </mxCell>
        <mxCell id="gBG6J6Ldedl3g76K5xfk-101" style="edgeStyle=orthogonalEdgeStyle;rounded=0;orthogonalLoop=1;jettySize=auto;html=1;entryX=0.539;entryY=1.068;entryDx=0;entryDy=0;entryPerimeter=0;endArrow=none;endFill=0;" edge="1" parent="1" source="gBG6J6Ldedl3g76K5xfk-89" target="gBG6J6Ldedl3g76K5xfk-49">
          <mxGeometry relative="1" as="geometry" />
        </mxCell>
        <mxCell id="gBG6J6Ldedl3g76K5xfk-102" style="edgeStyle=orthogonalEdgeStyle;rounded=0;orthogonalLoop=1;jettySize=auto;html=1;entryX=0.543;entryY=0.081;entryDx=0;entryDy=0;entryPerimeter=0;endArrow=none;endFill=0;" edge="1" parent="1" source="gBG6J6Ldedl3g76K5xfk-89" target="gBG6J6Ldedl3g76K5xfk-59">
          <mxGeometry relative="1" as="geometry" />
        </mxCell>
        <mxCell id="gBG6J6Ldedl3g76K5xfk-103" style="edgeStyle=orthogonalEdgeStyle;rounded=0;orthogonalLoop=1;jettySize=auto;html=1;entryX=0.563;entryY=0;entryDx=0;entryDy=0;entryPerimeter=0;endArrow=none;endFill=0;" edge="1" parent="1" source="gBG6J6Ldedl3g76K5xfk-89" target="gBG6J6Ldedl3g76K5xfk-69">
          <mxGeometry relative="1" as="geometry" />
        </mxCell>
        <mxCell id="gBG6J6Ldedl3g76K5xfk-104" style="edgeStyle=orthogonalEdgeStyle;rounded=0;orthogonalLoop=1;jettySize=auto;html=1;entryX=0.5;entryY=0;entryDx=0;entryDy=0;endArrow=none;endFill=0;" edge="1" parent="1" source="gBG6J6Ldedl3g76K5xfk-89" target="gBG6J6Ldedl3g76K5xfk-79">
          <mxGeometry relative="1" as="geometry" />
        </mxCell>
      </root>
    </mxGraphModel>
  </diagram>
</mxfile>
